# Blender v2.78 (sub 0) OBJ File: ''
# www.blender.org
o Cube
v 1.000000 -1.000000 -1.000000
v 1.000000 -1.000000 1.000000
v -1.000000 -1.000000 1.000000
v -1.000000 -1.000000 -1.000000
v 1.000000 1.000000 -0.999999
v 0.999999 1.000000 1.000001
v -1.000000 1.000000 1.000000
v -1.000000 1.000000 -1.000000
vt 0.3496 0.5932
vt 0.0100 0.9328
vt 0.0100 0.5932
vt 0.3557 0.9448
vt 0.7023 0.5982
vt 0.7023 0.9448
vt 0.7126 0.4044
vt 0.9930 0.1325
vt 0.9904 0.4103
vt 0.2819 0.1281
vt 0.0105 0.3995
vt 0.0105 0.1281
vt 0.3446 0.1272
vt 0.6365 0.4192
vt 0.3446 0.4192
vt 0.9422 0.6673
vt 0.7130 0.8965
vt 0.7130 0.6673
vt 0.3496 0.9328
vt 0.3557 0.5982
vt 0.7152 0.1267
vt 0.2819 0.3995
vt 0.6365 0.1272
vt 0.9422 0.8965
vn 0.0000 -1.0000 0.0000
vn 0.0000 1.0000 0.0000
vn 1.0000 -0.0000 0.0000
vn 0.0000 -0.0000 1.0000
vn -1.0000 -0.0000 -0.0000
vn 0.0000 0.0000 -1.0000
s off
f 2/1/1 4/2/1 1/3/1
f 8/4/2 6/5/2 5/6/2
f 5/7/3 2/8/3 1/9/3
f 6/10/4 3/11/4 2/12/4
f 3/13/5 8/14/5 4/15/5
f 1/16/6 8/17/6 5/18/6
f 2/1/1 3/19/1 4/2/1
f 8/4/2 7/20/2 6/5/2
f 5/7/3 6/21/3 2/8/3
f 6/10/4 7/22/4 3/11/4
f 3/13/5 7/23/5 8/14/5
f 1/16/6 4/24/6 8/17/6
